PathFileType	4	(X/Y/Z)	/Users/niels/Desktop/University/Third Semester/Perception and Action/Exam/Gymnastics Motion Tracking/Code for Gym Tracking/Analyzed Data/Webcam_Backflip/id2_4_pure_Sports2D/id2_4_pure_Sports2D_px_person00.trc
DataRate	CameraRate	NumFrames	NumMarkers	Units	OrigDataRate	OrigDataStartFrame	OrigNumFrames
29.87551867219917	29.87551867219917	11	22	m	29.87551867219917	150	241
Frame#	Time	Hip			RHip			RKnee			RAnkle			RBigToe			RSmallToe			RHeel			LHip			LKnee			LAnkle			LBigToe			LSmallToe			LHeel			Neck			Head			Nose			RShoulder			RElbow			RWrist			LShoulder			LElbow			LWrist		
		X1	Y1	Z1	X2	Y2	Z2	X3	Y3	Z3	X4	Y4	Z4	X5	Y5	Z5	X6	Y6	Z6	X7	Y7	Z7	X8	Y8	Z8	X9	Y9	Z9	X10	Y10	Z10	X11	Y11	Z11	X12	Y12	Z12	X13	Y13	Z13	X14	Y14	Z14	X15	Y15	Z15	X16	Y16	Z16	X17	Y17	Z17	X18	Y18	Z18	X19	Y19	Z19	X20	Y20	Z20	X21	Y21	Z21	X22	Y22	Z22
150	5.020833333333333	0.7445762136756877	-0.554739772262067	0.0	0.7390826647460754	-0.5545680965187003	0.0	0.7464491005363106	-0.6710791501965933	0.0	0.7103776771430078	-0.7910952555784081	0.0	0.7428367311994095	-0.8142223367855006	0.0	0.7314474467413618	-0.8170528521763647	0.0	0.6969754359010453	-0.8084960211208919	0.0	0.7516351589486262	-0.5531758357994576	0.0	0.7525936086602074	-0.66971514021111	0.0	0.7331437081371073	-0.7804182045116334	0.0	0.7737853032957652	-0.7953685007435584	0.0	0.7702111690496092	-0.792929359898851	0.0	0.7279702823363502	-0.7994576266305222	0.0	0.7362310418256167	-0.3942527834496018	0.0	0.7574263021139326	-0.3199798640033693	0.0	0.7731321925999707	-0.35750035339315717	0.0	0.7194146034694631	-0.415309171830145	0.0	0.6890977681596975	-0.49165572874025903	0.0	0.7001596457802292	-0.5736285657475911	0.0	0.7378573314489152	-0.4168490854296983	0.0	0.7208277731891957	-0.48901998657684687	0.0	0.7433547484023793	-0.5582879460350971	0.0
151	5.054305555555556	0.7453053911247435	-0.5474842751057185	0.0	0.7396376066724187	-0.5473137985674218	0.0	0.7464079347582617	-0.6642417083628768	0.0	0.7110483029745212	-0.7846025622242189	0.0	0.7433109936041868	-0.8079368966763754	0.0	0.7309543611115719	-0.8105009170343891	0.0	0.6981206821053413	-0.8026784978675732	0.0	0.752027081545169	-0.5460582134263536	0.0	0.7529132513695879	-0.6634380129821161	0.0	0.7336197389350255	-0.7741019405773917	0.0	0.7728387281911884	-0.7901957775193844	0.0	0.7698987249614487	-0.7875780614974426	0.0	0.7284087561505804	-0.7933574006305181	0.0	0.7360085163529635	-0.38747105845798596	0.0	0.7575129676765316	-0.3130218410168091	0.0	0.7730963843745	-0.35116843838610734	0.0	0.719219589712678	-0.40710929347163416	0.0	0.6892213623071115	-0.4838524910958373	0.0	0.702267246097653	-0.5653214012327787	0.0	0.7376549146930812	-0.4094652693711468	0.0	0.7216212390535751	-0.48141516727439726	0.0	0.7446372585889595	-0.5506057452702938	0.0
152	5.087777777777778	0.7460694092630488	-0.5418753186198833	0.0	0.7401070265855652	-0.5414664052603474	0.0	0.7457452717722862	-0.6589046126613779	0.0	0.7113354659556921	-0.7795622728670142	0.0	0.7440309943331925	-0.8030278852501583	0.0	0.7308964694333451	-0.8053907972104317	0.0	0.6989353611345662	-0.7979263676789423	0.0	0.75260312894485	-0.5404866753174646	0.0	0.7533503397738527	-0.6584742241535564	0.0	0.7342539313896448	-0.7691745956015358	0.0	0.7720173327923379	-0.7864416913127544	0.0	0.7697717093405869	-0.783554441391076	0.0	0.729073615160194	-0.7884259342966649	0.0	0.735858159137558	-0.3819297603402724	0.0	0.7574356812118008	-0.3072990195862543	0.0	0.77310458212399	-0.3461365045081083	0.0	0.7190203884037195	-0.4002047950574431	0.0	0.6899530168980712	-0.4776474494482326	0.0	0.7054344720383392	-0.5582875314728516	0.0	0.737528464504501	-0.40343796642385643	0.0	0.7226745793517453	-0.47537904363342015	0.0	0.7462281227281656	-0.5445292330971335	0.0
153	5.12125	0.7466981845502343	-0.5383927819057827	0.0	0.7402895917345363	-0.5375235374849967	0.0	0.7446456833828521	-0.6553757901988622	0.0	0.7113626697926178	-0.7762539256553614	0.0	0.7446961665415303	-0.7997752715847678	0.0	0.7310711337518793	-0.8020584490322866	0.0	0.6994329035838573	-0.7946232292777865	0.0	0.7532103868500463	-0.5368889823724113	0.0	0.7537612529694165	-0.6550976554193925	0.0	0.7349421827229211	-0.7659117156682589	0.0	0.7713603084586808	-0.7842288518575711	0.0	0.769796157512845	-0.7810832377057007	0.0	0.7298447800322768	-0.7850333176697424	0.0	0.7357720364815058	-0.37802599092514333	0.0	0.7572793419573481	-0.30317218404749036	0.0	0.7731407214331087	-0.3426240498770179	0.0	0.7188632011877065	-0.3951946960025094	0.0	0.6911363439843525	-0.4734628116637814	0.0	0.7095785977051853	-0.5529158294173411	0.0	0.7374632817380969	-0.39918187006280753	0.0	0.7236761326742684	-0.47127499542643847	0.0	0.7479064352015299	-0.540220009574923	0.0
154	5.154722222222222	0.7470159984953212	-0.5373220669734762	0.0	0.7400794223273923	-0.5358979465687925	0.0	0.7433521969951437	-0.6538234770573114	0.0	0.71128074701141	-0.7747817901002083	0.0	0.7450677832787987	-0.7983278648382927	0.0	0.7312725482369389	-0.8006024497425475	0.0	0.6996876857637349	-0.7929754917038905	0.0	0.753665485429947	-0.5355786521681215	0.0	0.7540412439716656	-0.653520184675146	0.0	0.7355715591670593	-0.7645020056370613	0.0	0.7708475553821513	-0.7835752999673408	0.0	0.7699018215650019	-0.7802753529728051	0.0	0.7305748025722263	-0.783397729826846	0.0	0.735734848717045	-0.375982146734242	0.0	0.7571115987640628	-0.3008582911603718	0.0	0.7731831249615633	-0.3407178385945638	0.0	0.7188134808131602	-0.3925040576996257	0.0	0.6927460270020118	-0.47156656155081444	0.0	0.7146497310672311	-0.5495088378692043	0.0	0.7374285238246816	-0.3969325963515094	0.0	0.7244649427345795	-0.46930936371376286	0.0	0.7495228098247426	-0.5377448588631785	0.0
155	5.188194444444444	0.7469177541995401	-0.5386943669221009	0.0	0.7395041898406235	-0.5367842958707394	0.0	0.742063509169284	-0.6542660234468334	0.0	0.7112224080640219	-0.7751720761863825	0.0	0.7451143972128181	-0.798710766214176	0.0	0.7314059914742758	-0.8009650315984806	0.0	0.6998309678689034	-0.7930566776029216	0.0	0.7538390391941422	-0.5366763237145685	0.0	0.7541298656321428	-0.6538505181627523	0.0	0.7360382627830073	-0.7649983668403247	0.0	0.7704722169318545	-0.7844176752106531	0.0	0.7700268982397502	-0.781097261659255	0.0	0.7311456608610999	-0.783585721396899	0.0	0.7357632209293251	-0.37586310691128616	0.0	0.7569860865036051	-0.30044477078351667	0.0	0.7732441468409968	-0.34047216762783816	0.0	0.7189016957382082	-0.3923214737184114	0.0	0.694839428123952	-0.47204743530073145	0.0	0.7205543669368827	-0.5482420783578611	0.0	0.7374151014834616	-0.3967660097401526	0.0	0.7250989641798418	-0.46953225419035743	0.0	0.7510858280698918	-0.53712860691849	0.0
156	5.221666666666667	0.7464227198867958	-0.5422405605670314	0.0	0.7387142743542872	-0.5400527148233284	0.0	0.7409036549527563	-0.656551428785492	0.0	0.7112477511395683	-0.7773863381620183	0.0	0.7449949443754488	-0.8007902372220009	0.0	0.7315011183176366	-0.8029963052142063	0.0	0.6999680193034096	-0.7948371093062495	0.0	0.7537079273771571	-0.5400256771388806	0.0	0.7540166158802611	-0.6560162447562631	0.0	0.7362954683557712	-0.767296109327726	0.0	0.7703349388422841	-0.7866170700618467	0.0	0.7701970750596197	-0.7833821973522842	0.0	0.7315158632255944	-0.7855187059178669	0.0	0.7358993253532533	-0.3775978257349785	0.0	0.7569466065922086	-0.30190859943175535	0.0	0.7733652216412884	-0.3419105803956557	0.0	0.7191112210609281	-0.39460549976193204	0.0	0.6974717469506033	-0.47479342411368713	0.0	0.7270727160680919	-0.5491285544225349	0.0	0.7374317960835683	-0.39862789040471386	0.0	0.7258203325089974	-0.47183078460415095	0.0	0.7527569046406654	-0.5383595534346447	0.0
157	5.255138888888889	0.7456559781998984	-0.5474544318944569	0.0	0.7379086724859834	-0.5452770388703578	0.0	0.7399411095121966	-0.6603793792448751	0.0	0.7113571956209681	-0.7812753638188222	0.0	0.744966120646387	-0.804299075493051	0.0	0.7317006368898684	-0.8064852285471654	0.0	0.700147695468956	-0.7981794291618765	0.0	0.7533486754416823	-0.5452046388700564	0.0	0.753748387298855	-0.6597445744710724	0.0	0.7363628511960163	-0.7711602785551894	0.0	0.7706211151777941	-0.7899706940016729	0.0	0.7705286069218257	-0.7868825377766381	0.0	0.7317095017154172	-0.7889687910625683	0.0	0.7361823508228188	-0.38101811255981405	0.0	0.757032676818911	-0.3051237637977145	0.0	0.7735951744537674	-0.3449770765709998	0.0	0.7194285626264864	-0.399083731615078	0.0	0.7006296379237787	-0.47951454568197266	0.0	0.7338708631279257	-0.5520232948724598	0.0	0.7374875895816251	-0.4023327504177523	0.0	0.726916856911528	-0.47596071888784436	0.0	0.7547612086945069	-0.5413672260539496	0.0
158	5.288611111111111	0.7447753623486191	-0.5537423609512552	0.0	0.7372336320565358	-0.5518357472812763	0.0	0.7391826642882594	-0.6653597775405229	0.0	0.7115267527017205	-0.7865407132663669	0.0	0.745285120003917	-0.8089282616102657	0.0	0.7322037967618034	-0.8111653493859301	0.0	0.7003709101771318	-0.8028078699871238	0.0	0.7528599336736712	-0.5516116847582843	0.0	0.7534057217890526	-0.6646212015877645	0.0	0.7362712110929351	-0.7762493818780631	0.0	0.7714649812882945	-0.7942370905051896	0.0	0.771116053598817	-0.7913009638544	0.0	0.7317393469931971	-0.7935788811924467	0.0	0.7366308481074552	-0.38587995811186127	0.0	0.7572801999142117	-0.3098542456616821	0.0	0.7739836514789515	-0.349501288385128	0.0	0.7198672721292257	-0.40526241295285936	0.0	0.7041996145053959	-0.48578216395926094	0.0	0.7405922271237436	-0.5566551473538042	0.0	0.7375981368476588	-0.40755140180853905	0.0	0.7286127667512626	-0.4816061938959408	0.0	0.7573028119379708	-0.5459839861891146	0.0
159	5.3220833333333335	0.7439258158033556	-0.5605277130316195	0.0	0.7367462997820563	-0.5590170499345476	0.0	0.738558523219803	-0.6710700678807443	0.0	0.7116922595838099	-0.7927306435048554	0.0	0.7460789188773307	-0.814368827907228	0.0	0.7331210581369202	-0.8167019580904616	0.0	0.7005625480548352	-0.8082874906840732	0.0	0.7523020399952417	-0.5585771638063701	0.0	0.7530641257635732	-0.670185074988433	0.0	0.736043884187128	-0.7821393941054487	0.0	0.7728578862434257	-0.7991483787368857	0.0	0.771954014877048	-0.7963001590941491	0.0	0.7315863131616905	-0.7989218117599388	0.0	0.7372411401993663	-0.3918384702945018	0.0	0.7576952948255302	-0.31574390289104554	0.0	0.7745787209227804	-0.3551648733595444	0.0	0.7204283519321969	-0.41251980051914217	0.0	0.7079800008662303	-0.4930577089544868	0.0	0.7468883653425463	-0.5626447022070522	0.0	0.7378241839712925	-0.4138463314648237	0.0	0.7310146839614423	-0.4883781271600706	0.0	0.7604544863192181	-0.551882238428395	0.0
160	5.355555555555556	0.7432198966795369	-0.567312365249067	0.0	0.7364455878776364	-0.5661538688601958	0.0	0.7379767923373695	-0.6770618478089095	0.0	0.7117213069390085	-0.7992748876445659	0.0	0.7472570878567998	-0.8202626769555125	0.0	0.7343687979747017	-0.8226698788952288	0.0	0.700546197179443	-0.8140642027857604	0.0	0.7517327942313167	-0.5655037925474304	0.0	0.7527665353955786	-0.6759933791401158	0.0	0.7357363063647708	-0.7883618258109639	0.0	0.7746871129898588	-0.8044004615860828	0.0	0.7730033681796403	-0.8015288412207234	0.0	0.7312794641994468	-0.8045521300839477	0.0	0.7379870283646145	-0.39842509133890625	0.0	0.7582318685730597	-0.3223220244334794	0.0	0.7753954642341947	-0.36151821583880717	0.0	0.7210641778254462	-0.420214247541411	0.0	0.7117346517826875	-0.5007329941273905	0.0	0.7523949066991048	-0.569497384164565	0.0	0.7382885427952889	-0.42073364467727814	0.0	0.7341041648251879	-0.4957763089311147	0.0	0.7640829368093115	-0.5585229676208977	0.0
